<svg xmlns="http://www.w3.org/2000/svg" viewBox="0 0 211.97 152.64">
    <defs>
        <style>
            .cls-1 {
                fill: #e3fffb;
            }

            .cls-2,
            .cls-4 {
                fill: #083831;
            }

            .cls-3 {
                font-size: 26.06px;
                fill: #14b8a6;
            }

            .cls-3,
            .cls-4 {
                font-family: MADENZRegular, MADENZ;
            }

            .cls-4 {
                font-size: 25.27px;
            }

            .cls-5 {
                letter-spacing: -0.02em;
            }
        </style>
    </defs>
    <g id="Layer_2" data-name="Layer 2">
        <g id="Background">
            <rect class="cls-1" width="211.97" height="152.64" />
            <path class="cls-2"
                d="M76.85,36l13-9a31.69,31.69,0,0,1,23.86-5.39c.69.14,1.38.3,2.08.48a37.41,37.41,0,0,1,8.94,3.8c3.21,1.79,8.23,4.66,12.07,10.28a25,25,0,0,1,2.85,5.48,22.65,22.65,0,0,1,1.17,9.05c-.7,7.51-6,12.51-7.53,13.92-7.34,6.88-18.4,9.32-18.4,9.32h0l-10.28-7.6,16.17-9,3.16-3.35a13.88,13.88,0,0,0,1.23-8.71c-1.25-6.28-7-9.41-9.83-10.95a14.54,14.54,0,0,0-8.05-2.23,13.6,13.6,0,0,0-5.36,1.56,62.85,62.85,0,0,0-13,8.5L85.34,45Z" />
            <path class="cls-2"
                d="M112.61,50.42,92.76,62a8.45,8.45,0,0,0-4.35,7.19,8.74,8.74,0,0,0,.28,2.13c2.08,7.69,15.43,12.07,15.43,12.07h0a9.44,9.44,0,0,0,4.74,1.17,10.52,10.52,0,0,0,4.2-1.17,36.7,36.7,0,0,0,7.39-4.48L126,74h0l10.73,5.37-2.69,3.12h0l-11.7,8.27a25.81,25.81,0,0,1-15,4.71h-.15a30.06,30.06,0,0,1-11.11-2.25,57.76,57.76,0,0,1-10.73-6c-.49-.35-1-.7-1.43-1-7.06-5.36-10.52-14.54-7.72-22.94q.28-.86.66-1.71c2.34-5.4,6.34-8.43,9.39-10.73a38.31,38.31,0,0,1,14.3-6.71h0l12.07,6.26Z" />
            <text class="cls-3" transform="translate(29.55 130.09)">EnV</text><text class="cls-4"
                transform="translate(108.85 130.28)">
                <tspan class="cls-5">B</tspan>
                <tspan x="23.8" y="0">YTE</tspan>
            </text>
        </g>
    </g>
</svg>